<svg viewBox="0 0 800 240" xmlns="http://www.w3.org/2000/svg">
  <style>
    @keyframes windFlow {
      0% { stroke-dashoffset: 0; }
      100% { stroke-dashoffset: -100; }
    }
    @keyframes droplet {
      0% { transform: translateY(-20px) translateX(0); opacity: 0; }
      10% { opacity: 0.8; }
      80% { opacity: 0.8; }
      100% { transform: translateY(180px) translateX(-20px); opacity: 0; }
    }
    @keyframes pulseGlow {
      0% { fill: #A48374; opacity: 0.6; }
      50% { fill: #CBAD8D; opacity: 0.9; }
      100% { fill: #A48374; opacity: 0.6; }
    }
    @keyframes floatDust {
      0% { transform: translateY(0px) translateX(0); opacity: 0.8; }
      50% { transform: translateY(-15px) translateX(10px); opacity: 0.4; }
      100% { transform: translateY(-30px) translateX(0); opacity: 0; }
    }
    .grid-line { stroke: #D1C7BD; stroke-width: 0.5; opacity: 0.15; }
    .flow-wave { stroke: #A48374; stroke-width: 1.5; fill: none; stroke-dasharray: 20 10; animation: windFlow 6s linear infinite; opacity: 0.4; }
    .flow-wave-accent { stroke: #CBAD8D; stroke-width: 1; fill: none; stroke-dasharray: 15 15; animation: windFlow 4s linear infinite; opacity: 0.6; }
    .drop { fill: #CBAD8D; animation: droplet 2s infinite linear; }
    .dust { fill: #A48374; animation: floatDust 4s infinite ease-in-out; }
    .headline { fill: #F1EDE6; font-family: 'Segoe UI', system-ui, sans-serif; font-size: 42px; font-weight: 900; letter-spacing: 6px; }
    .tagline { fill: #CBAD8D; font-family: 'JetBrains Mono', monospace; font-size: 13px; font-weight: bold; letter-spacing: 2px; }
    .status-badge { fill: #3A2D28; stroke: #CBAD8D; stroke-width: 1.5; rx: 4px; }
  </style>
  
  <!-- Background -->
  <rect width="100%" height="100%" fill="#3A2D28" />
  
  <!-- Grid Matrix Overlay (Futuristic HUD feel) -->
  <line x1="0" y1="40" x2="800" y2="40" class="grid-line" />
  <line x1="0" y1="80" x2="800" y2="80" class="grid-line" />
  <line x1="0" y1="120" x2="800" y2="120" class="grid-line" />
  <line x1="0" y1="160" x2="800" y2="160" class="grid-line" />
  <line x1="0" y1="200" x2="800" y2="200" class="grid-line" />
  <line x1="100" y1="0" x2="100" y2="240" class="grid-line" />
  <line x1="200" y1="0" x2="200" y2="240" class="grid-line" />
  <line x1="300" y1="0" x2="300" y2="240" class="grid-line" />
  <line x1="400" y1="0" x2="400" y2="240" class="grid-line" />
  <line x1="500" y1="0" x2="500" y2="240" class="grid-line" />
  <line x1="600" y1="0" x2="600" y2="240" class="grid-line" />
  <line x1="700" y1="0" x2="700" y2="240" class="grid-line" />

  <!-- Animated Wind Wave Paths -->
  <path d="M -50 150 Q 150 50 350 150 T 750 150 T 1150 150" class="flow-wave" />
  <path d="M -50 180 Q 200 120 450 180 T 950 180" class="flow-wave-accent" />
  <path d="M -50 90 Q 100 190 250 90 T 550 90 T 850 90" class="flow-wave" style="animation-duration: 8s;" />

  <!-- Radar circle details -->
  <circle cx="700" cy="120" r="60" fill="none" stroke="#A48374" stroke-width="1" opacity="0.3" />
  <circle cx="700" cy="120" r="40" fill="none" stroke="#CBAD8D" stroke-width="1" opacity="0.2" />
  <circle cx="700" cy="120" r="5" fill="#CBAD8D" class="pulse-glow" style="animation: pulseGlow 2s infinite;" />
  <line x1="700" y1="60" x2="700" y2="180" stroke="#A48374" stroke-dasharray="2 2" opacity="0.4" />
  <line x1="640" y1="120" x2="760" y2="120" stroke="#A48374" stroke-dasharray="2 2" opacity="0.4" />

  <!-- Animated spray droplets (falling) -->
  <circle cx="120" cy="0" r="2.5" class="drop" style="animation-delay: 0s; animation-duration: 1.8s;" />
  <circle cx="190" cy="0" r="3" class="drop" style="animation-delay: 0.3s; animation-duration: 2.2s;" />
  <circle cx="280" cy="0" r="2" class="drop" style="animation-delay: 0.7s; animation-duration: 1.5s;" />
  <circle cx="340" cy="0" r="3.5" class="drop" style="animation-delay: 1.1s; animation-duration: 2.5s;" />
  <circle cx="480" cy="0" r="2.5" class="drop" style="animation-delay: 0.5s; animation-duration: 2s;" />
  <circle cx="560" cy="0" r="3" class="drop" style="animation-delay: 1.3s; animation-duration: 1.9s;" />
  <circle cx="630" cy="0" r="2" class="drop" style="animation-delay: 0.9s; animation-duration: 2.3s;" />

  <!-- Animated dust particles (rising/dissipating) -->
  <circle cx="150" cy="180" r="4" class="dust" style="animation-delay: 0s; animation-duration: 3s;" />
  <circle cx="250" cy="200" r="6" class="dust" style="animation-delay: 1s; animation-duration: 4.5s;" />
  <circle cx="320" cy="190" r="5" class="dust" style="animation-delay: 2.2s; animation-duration: 3.5s;" />
  <circle cx="420" cy="185" r="4" class="dust" style="animation-delay: 1.5s; animation-duration: 4.8s;" />
  <circle cx="500" cy="210" r="5" class="dust" style="animation-delay: 0.7s; animation-duration: 3.8s;" />
  <circle cx="610" cy="195" r="4.5" class="dust" style="animation-delay: 2.8s; animation-duration: 4.1s;" />

  <!-- Typography -->
  <text x="60" y="115" class="headline">AIROPTIMA</text>
  <text x="63" y="145" class="tagline">SMART AI POLLUTION MITIGATION &amp; LOGISTICS</text>

  <!-- Small details: HUD corner ticks -->
  <path d="M 15 15 L 15 35 M 15 15 L 35 15" stroke="#CBAD8D" stroke-width="2" fill="none" />
  <path d="M 785 15 L 785 35 M 785 15 L 765 15" stroke="#CBAD8D" stroke-width="2" fill="none" />
  <path d="M 15 225 L 15 205 M 15 225 L 35 225" stroke="#CBAD8D" stroke-width="2" fill="none" />
  <path d="M 785 225 L 785 205 M 785 225 L 765 225" stroke="#CBAD8D" stroke-width="2" fill="none" />
  
  <!-- Version Tag -->
  <g transform="translate(63, 165)">
    <rect width="78" height="18" class="status-badge" />
    <text x="39" y="13" fill="#CBAD8D" font-family="'Segoe UI', sans-serif" font-size="9" font-weight="900" text-anchor="middle">VERSION 3.0</text>
  </g>
  <g transform="translate(147, 165)">
    <rect width="64" height="18" fill="#A48374" rx="4" />
    <text x="32" y="13" fill="#F1EDE6" font-family="'Segoe UI', sans-serif" font-size="9" font-weight="900" text-anchor="middle">ACTIVE ML</text>
  </g>
</svg>
